<?xml version="1.0" encoding="utf-8"?>
<!-- Generator: Adobe Illustrator 24.0.0, SVG Export Plug-In . SVG Version: 6.00 Build 0)  -->
<svg version="1.1" id="_x2014_ÎÓÈ_x5F_1" xmlns="http://www.w3.org/2000/svg" xmlns:xlink="http://www.w3.org/1999/xlink"
	 x="0px" y="0px" viewBox="0 0 8350 4500" style="enable-background:new 0 0 8350 4500;" xml:space="preserve">
<style type="text/css">
	.st0{fill:#253A59;}
	.st1{fill:#E52027;}
	.st2{fill:#E56428;}
	.st3{fill:#FFFFFF;}
</style>
<path class="st0" d="M3166.74,1875.86c-14.21,44.69-35.83,87.67-64.88,128.92c-29.05,41.27-62.61,79.22-100.65,113.82
	c-38.06,34.62-78.31,64.65-120.78,90.14c-42.47,25.49-83.73,44.03-123.78,55.59c15.44,9.74,29.08,22.7,40.92,38.93
	c11.81,16.23,19.93,38.06,24.38,65.44c14.84,82.11,37.21,149.49,67.11,202.19c29.88,52.68,71.55,85.22,124.97,97.65
	c6.73,1.17,12.2,3.15,16.39,5.95c3.42,2.81,6.35,6.42,8.78,10.77c2.42,4.37,2.75,9.94,1,16.74c-2.98,9.83-13.3,20.21-31.01,31.11
	c-17.7,10.9-38.89,18.05-63.55,21.44c-24.66,3.39-50.3,0.3-76.9-9.26c-26.61-9.58-49.96-29.55-70.06-59.94
	c-14.7-20.21-26.36-45.39-34.98-75.57c-8.64-30.19-15.49-59.33-20.59-87.43c-5.09-28.12-8.62-52.58-10.56-73.36
	c-1.96-20.79-2.81-31.93-2.59-33.45c0.11-0.74-0.01-1.3-0.33-1.67c-0.34-0.35-0.39-1.28-0.17-2.79
	c-2.78-28.21-9.83-50.82-21.16-67.82c-11.32-16.99-24.64-29.62-39.92-37.85c-15.3-8.24-31.66-13.06-49.09-14.48
	c-17.45-1.42-33.62-1.03-48.5,1.15c-39.56,81.69-68.11,148.29-85.6,199.83c-17.52,51.54-27.7,92.3-30.54,122.28
	c-2.85,29.96-0.24,51.48,7.83,64.53c8.05,13.05,17.86,22.1,29.4,27.16c11.52,5.05,22.59,8.07,33.2,9.08
	c10.59,0.99,17.32,4.78,20.2,11.36c4.64,10.22,2.41,18.91-6.69,26.05c-9.1,7.14-18.12,12.4-27.05,15.81
	c-6.41,1.79-12.72,3.01-18.95,3.69c-6.25,0.66-12.01,0.74-17.3,0.25c-6.08-0.47-11.76-0.95-17.05-1.44
	c-31.79-8.21-55.19-23.9-70.22-47.06c-15.02-23.18-23.42-51.13-25.14-83.87c-1.74-32.75,2.13-69.67,11.59-110.76
	c9.46-41.11,22.64-84.04,39.55-128.86c16.91-44.8,36.37-90.1,58.42-135.89c22.03-45.79,45-90.12,68.93-133.03
	c34.49-62.78,64.08-114.34,88.78-154.66c24.68-40.32,45.34-72.79,62-97.46c18.62-27.72,34.44-49.34,47.46-64.88
	c8.38-10.08,17.7-18.73,27.96-25.93c8.59-6.36,18.77-11.68,30.53-15.98c11.74-4.27,24.01-5.6,36.83-3.96
	c13.58,1.6,24.16,5.22,31.79,10.82c6.18,4.94,9.8,11.67,10.86,20.19c1.05,8.53-4.93,20.56-17.93,36.09l-6.62,5.9
	c-1.78,1.59-4,3.74-6.7,6.47c-2.7,2.75-5.32,4.92-7.86,6.52c-2.65,2.37-9.11,8.45-19.36,18.25c-10.26,9.82-24.35,27.44-42.26,52.9
	c-17.93,25.46-40.57,61.03-67.96,106.69c-27.39,45.67-59.88,105.19-97.45,178.56c26.49,7.71,61.5,4.39,105.02-9.96
	c43.53-14.35,96.39-45.36,158.6-93.03c41.58-32.53,76.58-66.06,105.04-100.59c28.44-34.52,51.31-66.36,68.63-95.53
	c20.27-33.77,36.64-66.98,49.09-99.65c10.35-28.83,15.63-51.82,15.85-69c0.2-17.16-2.13-30.11-6.99-38.83
	c-5.41-10.19-13.59-17.27-24.51-21.23c-20.66-10.96-53.46-13.53-98.42-7.7c-44.98,5.85-96.31,19.81-154,41.9
	c-57.71,22.11-118.27,51.98-181.69,89.64c-63.44,37.66-123.55,82.82-180.33,135.45c-50.51,46.4-89.72,88.88-117.6,127.48
	c-27.91,38.62-49.34,72.44-64.32,101.48c-17.2,33.64-28.16,63.98-32.88,91.06c-4.07,12.13-9.03,22.43-14.87,30.91
	c-4.86,6.94-11.52,11.92-20.02,14.92c-8.5,3.02-18.28,0.3-29.31-8.14c-11.83-8.4-18.51-24.31-20.07-47.74
	c-1.57-23.42,3.12-51.62,14.09-84.58c10.95-32.96,28.77-69.61,53.47-109.92c24.69-40.32,57.04-81.93,97.08-124.84
	c29.99-31.98,65.08-64.76,105.29-98.36c40.19-33.58,83.02-65.43,128.47-95.54c45.43-30.1,92.33-56.92,140.65-80.44
	c48.32-23.52,95.59-41.21,141.83-53.08c46.22-11.85,89.87-16.52,130.93-13.97c41.05,2.56,77.58,15.02,109.61,37.39
	c23.07,15.34,42.45,34.94,58.14,58.82c13.15,20.28,22.81,45.93,29.02,76.97C3183.46,1795.64,3179.96,1832.73,3166.74,1875.86z
	 M2578.36,1783.7c52.5-33.79,102.2-61.47,149.09-83.08c46.89-21.59,88.53-38.83,124.94-51.73c42.13-15.4,81.03-26.91,116.68-34.56
	c-65.01,9.02-125.41,23.41-181.23,43.18c-55.83,19.79-107.39,43.08-154.64,69.91c-47.27,26.83-90.04,55.69-128.31,86.58
	c-38.28,30.89-72.29,61.57-102.07,92.06c-70.36,71.94-128.74,151.13-175.13,237.59c28.65-43.86,61.07-87.15,97.24-129.88
	c30.76-37.25,67.37-76.45,109.83-117.6C2477.21,1855.02,2525.09,1817.53,2578.36,1783.7z M2549.86,2199.05
	c3.19-6.11,6.36-12.05,9.5-17.79c3.14-5.74,6.31-11.66,9.5-17.79c1.31-3.79,4.07-9.51,8.27-17.17l9.42-17.23
	c1.98-3.06,3.35-5.93,4.13-8.58c0.76-2.65,2.14-5.5,4.13-8.59c1.98-3.06,5.06-8.44,9.26-16.1c4.5-9.89,10.3-20.62,17.36-32.14
	c1.42-4.54,4.07-9.51,7.94-14.92c1.98-3.06,3.52-5.76,4.63-8.05c1.09-2.29,2.2-4.58,3.31-6.87c2.09-3.82,5.12-8.81,9.09-14.97
	c1.2-3.03,3.79-7.62,7.77-13.79c5.28-9.93,10.46-19.13,15.54-27.58c5.06-8.44,10.13-16.87,15.21-25.33l13.89-24.15l13.39-20.77
	c8.15-13.81,15.9-26.1,23.23-36.9c7.33-10.78,13.41-19.65,18.27-26.59c3.96-6.15,7.88-11.93,11.74-17.34l1.49-2.31
	c0.11-0.74,0.54-1.14,1.32-1.18c0.87-0.77,1.38-1.55,1.49-2.31c-6.51,7.77-12.6,15.33-18.28,22.68
	c-5.68,7.37-11.38,14.91-17.12,22.62l-8.44,10.47c-1.89,2.33-3.15,4.45-3.8,6.33c-0.67,1.9-1.88,3.64-3.64,5.2
	c-1.78,1.59-3.21,3.51-4.3,5.8c-1.11,2.29-2.54,4.23-4.3,5.79c-1.78,1.59-2.99,3.33-3.64,5.21c-0.67,1.9-1.93,4.01-3.8,6.33
	c-10.6,14.67-20.79,29.33-30.59,43.95c-9.82,14.64-19.29,29.63-28.44,44.97c-18.86,29.24-36.33,58.21-52.41,86.94
	c-16.1,28.73-31.53,56.86-46.29,84.41l-9.92,20.6c-3.98,6.17-7.6,12.66-10.91,19.54l-9.92,20.6c-2,3.09-3.6,6.15-4.79,9.17
	c-1.22,3.05-2.87,6.48-4.96,10.31c-2,3.08-3.6,6.15-4.79,9.17c-1.22,3.05-2.87,6.48-4.96,10.3c-4.08,6.91-6.9,13.02-8.43,18.3
	c-2.22,4.58-3.81,7.65-4.79,9.18c-2.21,4.58-3.47,8-3.8,10.25c-4.08,6.91-6.9,13.02-8.43,18.3c-5.63,12.21-10.84,24.2-15.62,35.98
	c-4.8,11.8-9.17,23.37-13.13,34.74c-4.74,11.41-9.06,22.63-12.97,33.62c-3.91,11.01-7.41,21.8-10.49,32.38
	c-0.66,4.5-2.21,9.81-4.62,15.88c-0.44,3.01-1.02,5.64-1.73,7.91c-0.73,2.27-1.29,4.9-1.73,7.91c-0.22,1.5-0.58,2.63-1.07,3.41
	c-0.51,0.76-0.85,1.89-1.07,3.41l-1.15,7.89c-1,1.53-1.71,3.8-2.15,6.81l-0.99,6.76c-4.84,17.38-7.88,35.43-9.07,54.14
	c-1.21,8.25-1.98,16.12-2.3,23.6c-0.34,7.46-0.22,14.56,0.35,21.25c0.12,14.91,1.79,27.14,4.99,36.69
	c0.66,5.93,2.01,11.1,4.07,15.48c2.04,4.38,3.95,8.38,5.72,12.04c2.42,4.36,4.3,7.25,5.64,8.69c0.54,1.46,1.48,2.9,2.82,4.34
	l0.99,1.07l1.99,2.15c0.65,0.7,0.97,1.25,0.91,1.63c-0.05,0.37,0.24,0.92,0.91,1.64c0.76-0.04,1.81,0.65,3.15,2.09l2.15,1.02
	l1.99,2.14c0.65,0.7,1.37,1.05,2.15,1.02l0.99,1.07c-8.84-7.8-15.25-16.46-19.22-25.96c-2.33-5.12-4.05-10.44-5.14-15.98
	c-1.11-5.54-2-11.29-2.66-17.22c-1.45-11.12-2.01-23.04-1.68-35.73c0.66-4.51,0.7-7.5,0.16-8.96l0.82-5.63l0.66-4.51
	c0.55-3.77,0.59-6.74,0.16-8.96l1.48-10.14c0.22-1.51,0.62-3.02,1.24-4.54c0.6-1.53,1.02-3.03,1.24-4.53l1.48-10.14
	c0.44-3.01,0.88-6.02,1.32-9.01c0.44-3.01,1.32-6.41,2.64-10.2c0.55-3.77,1.37-6.78,2.48-9.07c0.66-4.51,1.53-7.9,2.64-10.2
	c0.55-3.77,1.2-6.96,1.98-9.6c0.77-2.66,1.81-5.87,3.14-9.66c3.41-12.86,7.24-25.88,11.48-39.14c4.24-13.24,9.21-26.34,14.95-39.3
	c10.02-26.58,20.53-52.61,31.56-78.13c11.01-25.5,22.52-50.46,34.54-74.91c1.31-3.78,2.55-7.01,3.72-9.68
	c1.14-2.66,2.72-5.53,4.71-8.62c2.09-3.82,3.71-7.06,4.88-9.74c1.14-2.66,2.39-5.88,3.72-9.69
	C2539.27,2221.56,2545.23,2209.73,2549.86,2199.05z M2755.94,2403.12c0.33-2.25-0.07-4.84-1.17-7.78
	c-3.88-20.7-9.36-38.34-16.43-52.94c-2.88-6.58-6.06-12.39-9.53-17.45c-3.49-5.05-6.56-9.02-9.2-11.88
	c-1.34-1.42-2.39-2.13-3.15-2.09l-1.99-2.15l-0.99-1.07c-0.67-0.7-1.39-1.05-2.15-1.02l-1.99-2.14l-1.16,0.06
	c2.86,1.37,4.95,2.76,6.29,4.18l1.99,2.15l1.99,2.15c1.32,1.44,1.93,2.53,1.82,3.27l1.99,2.14c0.54,1.48,1.82,3.27,3.81,5.42
	c4.96,7.99,8.39,16.02,10.28,24.14c5.96,16.89,10.12,33.1,12.45,48.65c-0.22,1.51-0.21,2.63,0.08,3.35c0.27,0.74,0.3,1.86,0.09,3.35
	c0.54,1.48,0.77,2.59,0.67,3.32c-0.11,0.76,0.1,1.87,0.66,3.33c0.43,2.22,0.99,6.3,1.67,12.23c0.99,3.7,1.37,7.59,1.17,11.7
	c-0.22,4.12,0.1,8.39,1,12.82c1.11,8.16,2.27,15.94,3.49,23.34c1.22,7.39,1.99,15.19,2.33,23.39c2.44,14.8,5.12,29.22,8.06,43.26
	c2.93,14.02,6.17,27.3,9.71,39.83c7.63,26.5,16.25,48.84,25.87,67.04c10.16,19.67,21.33,35.17,33.47,46.55
	c11.48,10.65,23.29,19.05,35.44,25.2l0.99,1.07c1.54-0.07,2.27,0.26,2.15,1.02c1.54-0.07,2.47,0.06,2.81,0.43
	c0.33,0.35,0.88,0.52,1.66,0.48l6.46,3.05c1.53-0.07,2.64,0.24,3.31,0.96l3.48-0.16c0.65,0.7,1.38,1.06,2.16,1.02
	c1.54-0.07,2.64,0.25,3.31,0.96l3.48-0.16c0.65,0.7,1.75,1.03,3.31,0.96l2.31-0.11c-14.13-3.08-25.78-7.37-34.94-12.91
	c-2.77-2.11-5.36-4.05-7.78-5.79c-2.44-1.75-5.04-3.68-7.78-5.79c-2.77-2.11-5.14-4.23-7.12-6.38c-1.99-2.15-4.38-4.27-7.13-6.38
	c-8.51-10.05-15.93-20.9-22.28-32.52c-6.35-11.64-12.07-23.68-17.16-36.12c-10.17-24.89-17.86-51.02-23.07-78.37
	c-3.54-12.53-6.48-25.26-8.8-38.19c-2.33-12.95-4.49-25.72-6.48-38.31c-0.68-5.93-1.54-11.85-2.58-17.78
	c-1.06-5.91-1.92-11.83-2.58-17.78c-0.23-3.71-0.54-6.86-0.92-9.47c-0.4-2.59-0.76-5.37-1.08-8.34c-0.56-1.46-0.95-2.75-1.16-3.86
	C2756.86,2405.88,2756.47,2404.6,2755.94,2403.12z M2864.21,2189.92c55.15-25.69,100.76-56.92,136.83-93.69
	c36.05-36.74,64.67-72.4,85.84-106.96c25.01-39.95,44.08-81.13,57.19-123.53c-23.26,54.07-50.87,101.24-82.83,141.51
	c-31.98,40.3-62.63,74.18-91.96,101.66C2934.74,2140.37,2899.73,2167.38,2864.21,2189.92z"/>
<path class="st0" d="M3013.5,2287.6c3.19-6.11,6.42-12.42,9.67-18.92c3.25-6.48,5.97-12.03,8.18-16.61
	c3.09-5.36,6.17-10.73,9.26-16.1c2.2-4.58,6.06-9.97,11.57-16.21c5.51-6.22,12.34-8.41,20.52-6.56c4.53,0.54,10.34,2.7,17.47,6.45
	c7.11,3.77,13.41,9.27,18.88,16.46c5.45,7.21,8.48,16.77,9.04,28.67c0.56,11.92-3.08,26.26-10.89,43.03
	c-7.5,14.53-15.18,29.07-23.06,43.6c-7.88,14.55-15.53,28.7-22.9,42.47c-22.59,44.33-37.58,78.6-44.95,102.81
	c-7.39,24.23-8.31,38.44-2.78,42.65l1.16-0.06c2.86,1.37,4.85,3.52,5.96,6.44c2.2,5.88,1.32,11.88-2.64,18.03
	c-2.87,3.87-7.42,7.44-13.65,10.71c-6.23,3.28-12.91,5.64-20.02,7.09c-7.12,1.46-14.24,1.6-21.35,0.44
	c-7.13-1.15-13.44-3.85-18.96-8.06c-2.88-1.35-5.42-3.66-7.62-6.92c-2.22-3.25-3.82-6.71-4.81-10.41c-1.77-3.64-3.1-7.69-3.98-12.12
	c-1.44-5.9-2.3-11.82-2.58-17.79c-0.28-5.95-0.47-11.17-0.59-15.64c0.01-5.21,0.72-10.1,2.14-14.65
	c1.87-12.76,5.98-27.87,12.38-45.34c6.38-17.45,13.62-35.5,21.73-54.17c8.08-18.65,16.8-37.52,26.11-56.61
	C2996.1,2321.25,3005,2303.66,3013.5,2287.6z M3014.03,2339.05c8.92-19.06,16.88-35.48,23.88-49.24
	c6.99-13.75,12.97-27.08,17.93-40.01c-19.19,31.5-35.89,61.74-50.09,90.75c-12.02,24.44-23.23,49.95-33.63,76.55
	c-10.41,26.61-15.39,48.84-14.93,66.72c5.16-14.41,10.46-29.59,15.86-45.5c5.05-13.67,10.95-29.05,17.68-46.15
	C2997.43,2375.07,3005.2,2357.36,3014.03,2339.05z M3225.38,2050.52c7.16,3.41,11.53,7.68,13.08,12.82
	c1.55,5.16,1.16,10.4-1.15,15.72c-1.33,3.8-3.87,8.01-7.61,12.67c-1.89,2.32-3.7,4.28-5.46,5.85
	c-12.59,12.53-23.69,25.55-33.32,39.05c-9.66,13.51-16.9,23.73-21.75,30.67c-1.89,2.33-4.5,5.81-7.85,10.44
	c-3.38,4.64-7.29,9.12-11.75,13.42c-4.48,4.32-9.21,7.89-14.23,10.74c-5.02,2.86-10.14,3.65-15.31,2.4
	c-13.59-6.81-22.8-14.6-27.66-23.32c-1.88-2.88-2.2-7.34-0.92-13.38c1.26-6.02,2.91-12.06,4.95-18.14
	c2.04-6.05,4.17-11.56,6.44-16.52c2.25-4.95,3.88-8.19,4.88-9.74c2.42-6.08,4.44-10.65,6.04-13.71c1.6-3.05,3.37-6.12,5.37-9.2
	c6.5-12.98,14.54-23.43,24.15-31.34c9.59-7.9,19.45-13.78,29.61-17.61c10.15-3.83,19.81-5.58,28.96-5.28
	C3211.03,2046.35,3218.86,2047.85,3225.38,2050.52z M3108.26,2158.95c6.61-13.74,13.99-26.2,22.15-37.4
	c8.15-11.19,15.92-21.06,23.32-29.63c8.27-9.34,16.43-17.92,24.48-25.76c-11.05,2.02-20.74,8.07-29.12,18.15
	c-8.38,10.1-15.66,20.51-21.83,31.23C3119.87,2129.31,3113.53,2143.79,3108.26,2158.95z"/>
<path class="st0" d="M3779.37,1763.85c9.48,3.3,15,8.81,16.56,16.57c1.54,7.76,0.73,14.7-2.47,20.82
	c-3.08,5.37-6.84,10.03-11.24,13.95c-2.65,2.37-4.81,3.97-6.45,4.78c-11.48,10.24-21.62,20.59-30.44,31.08
	c-8.83,10.49-16.93,20.01-24.31,28.55c-8.38,10.1-15.66,20.51-21.83,31.24c-22.61,33.89-46.61,72.12-72.01,114.71
	c-25.41,42.59-50.67,86.86-75.8,132.79c-25.13,45.94-49.73,92.23-73.81,138.85c-24.08,46.64-46.49,90.96-67.19,132.95
	c-10.92,22.16-20.42,43.86-28.51,65.12c-8.11,21.27-14.57,40.59-19.41,57.98c-4.84,17.38-7.71,31.69-8.57,42.92
	c-0.89,11.23,0.44,17.88,3.99,19.95c5.74,2.7,10.56,3.79,14.49,3.24c3.91-0.57,7.55-1.86,10.92-3.87c3.35-2.03,6.93-4.07,10.67-6.09
	c3.75-2.05,7.95-3.17,12.58-3.39c7.71-0.36,11.97,2.04,12.75,7.23c0.32,2.96-0.06,5.6-1.15,7.89c-4.3,8.4-9.67,15-16.12,19.78
	c-6.45,4.78-12.94,8.44-19.44,10.98c-8.17,3.35-16.5,5.25-24.99,5.65c-10.83,0.51-19.41,0.16-25.74-1.03
	c-6.35-1.2-12.34-3.53-17.97-6.99c-11.49-5.44-19.96-13.05-25.43-22.86c-5.47-9.82-8.88-20.67-10.2-32.54
	c-1.34-11.88-1.24-24.38,0.3-37.5c1.53-13.11,3.89-25.36,7.09-36.7c1.86-7.54,3.85-14.53,5.95-20.98
	c2.09-6.43,4.28-12.32,6.61-17.65c2.41-6.08,4.73-11.41,6.94-15.99c2.31-5.32,4.59-10.46,6.86-15.42
	c2.26-4.95,4.53-10.09,6.86-15.43c-15.45,16.39-31.84,32.82-49.21,49.3c-17.37,16.48-34.49,31.27-51.37,44.37
	c-16.88,13.1-32.66,23.91-47.32,32.43c-14.68,8.52-27.42,13.04-38.23,13.55c-21.53,0.27-37.83-8.86-48.94-27.36
	c-11.11-18.5-12.63-42.11-4.6-70.84c6.26-21.92,16.41-46.65,30.4-74.16c13.99-27.51,30.39-55.69,49.19-84.55
	c18.78-28.85,38.83-57.01,60.11-84.5c21.28-27.47,42.44-51.59,63.51-72.35c21.05-20.74,41.08-36.98,60.05-48.69
	c18.97-11.69,35.25-16.75,48.82-15.15c20.31,2.79,36.01,9.5,47.11,20.17c11.1,10.67,18.79,22.25,23.12,34.72
	c22.04-40.56,43.43-79.42,64.22-116.59c20.77-37.15,39.83-70.49,57.2-100.03c17.35-29.52,31.93-54.45,43.73-74.78
	c11.78-20.31,20.16-34.32,25.13-42.02c9.15-15.34,19.51-27.21,31.1-35.58c11.58-8.38,23.35-14.14,35.33-17.32
	c11.97-3.16,23.3-4.62,34.02-4.39C3762.92,1760.89,3771.97,1761.96,3779.37,1763.85z M3114.64,2540.22
	c-2.11-17.05,0.19-38.05,6.91-62.98c5.39-21.12,15.5-46.97,30.32-77.51c14.82-30.52,37.89-66.29,69.2-107.31
	c37.26-50.23,69.44-89.22,96.51-116.98c27.07-27.74,52.07-44.02,75.03-48.83c-4.2-2.77-9.39-4.03-15.56-3.75
	c-5.41,0.25-12.44,2.45-21.1,6.58c-8.66,4.15-19.17,11.72-31.52,22.74c-7.94,7.09-20.35,19.8-37.22,38.11
	c-16.89,18.33-35.15,39.69-54.83,64.11c-19.68,24.42-39.06,50.69-58.13,78.81c-19.07,28.13-34.96,55.35-47.61,81.67
	c-12.68,26.33-20.83,50.6-24.45,72.76C3098.55,2509.84,3102.71,2527.36,3114.64,2540.22z M3177.51,2495.88
	c5.28,0.5,15.93-5.4,31.94-17.72c15.99-12.31,34.2-28.07,54.68-47.32c20.45-19.23,41.37-40.35,62.77-63.37
	c21.38-23,39.74-44.94,55.08-65.8c8.37-15.31,16.62-30.99,24.72-47.04c8.1-16.04,16.32-31.71,24.71-47.04
	c-1.01-3.68-1.2-7.58-0.59-11.72c0.6-4.12-0.81-7.6-4.23-10.43c-1.99-2.15-5.47-3.28-10.43-3.43c-4.98-0.13-11.45,2.21-19.45,7.07
	c-8.01,4.85-18.18,12.79-30.52,23.81c-12.37,11.03-27.25,26.28-44.66,45.73c-17.43,19.47-35.99,42.72-55.65,69.75
	c-19.69,27.04-37.07,52.84-52.17,77.41c-15.1,24.59-26.43,45.63-33.97,63.14C3172.17,2486.44,3171.43,2495.43,3177.51,2495.88z
	 M3460.39,2229.74c31.52-58.16,61.93-114.05,91.25-167.65c12.45-22.21,25.17-44.99,38.19-68.37c13-23.36,25.71-45.97,38.11-67.81
	c12.4-21.84,24.16-41.97,35.3-60.4c11.13-18.43,20.66-33.79,28.6-46.1c-24.92,28.77-50.28,63.16-76.07,103.15
	c-22.72,34.63-47.77,77.4-75.14,128.28C3513.22,2101.76,3486.49,2161.37,3460.39,2229.74z"/>
<path class="st0" d="M3794.51,2352.84c8.38,0.36,12.14,7.46,11.27,21.29c-0.88,13.85-5.18,28.78-12.88,44.8
	c-8.61,16.82-19.69,33.56-33.24,50.23c-13.57,16.68-29.56,31.59-47.97,44.76c-18.43,13.17-39.13,23.66-62.14,31.45
	c-23,7.79-47.87,11.2-74.57,10.21c-25.16-1.06-46.48-7.51-63.91-19.38c-14.68-9.75-26.83-25.04-36.45-45.85
	c-9.62-20.81-9.58-51.2,0.1-91.2c6.05-25.63,16.01-51.83,29.9-78.61c11.79-22.93,28.27-47.76,49.44-74.49
	c21.17-26.73,48.9-52.45,83.21-77.19c16.2-11.2,32.58-20.92,49.15-29.16c14-6.62,28.98-11.99,44.93-16.09
	c15.94-4.1,30.03-3.45,42.29,1.93c21.75,8.69,33.51,22.68,35.29,41.99c1.78,19.32-1.96,37.02-11.22,53.12
	c-5.08,8.45-11.75,18.65-20,30.59c-8.28,11.96-20.11,24.63-35.48,38.03c-15.39,13.42-35.6,27.04-60.64,40.89
	c-25.04,13.86-56.43,26.53-94.16,37.98c-12.79,24.48-21.76,46.53-26.94,66.16c-4.08,17.36-5.11,33.63-3.11,48.82
	c1.99,15.21,12.21,25.36,30.65,30.45c17.66,5.15,35.22,4.33,52.72-2.47c17.48-6.78,33.86-16.5,49.15-29.16
	c15.26-12.64,28.88-27.09,40.85-43.32c11.95-16.22,21.25-31.21,27.86-44.94c1.97-3.07,4.26-6.92,6.86-11.52
	c2.58-4.59,5.56-9.21,8.93-13.84c3.36-4.64,6.77-8.32,10.25-11.11C3788.13,2354.44,3791.42,2352.98,3794.51,2352.84z
	 M3501.21,2391.19c10.14-22.1,22.59-44.32,37.36-66.65c12.77-19.24,28.25-39.74,46.39-61.48c18.13-21.73,39.28-41.74,63.44-60.04
	c32.75-24.65,58.97-40.06,78.68-46.21c19.69-6.13,34.29-7.57,43.78-4.29c-2.66-2.85-5.7-5.69-9.11-8.52
	c-7.74-4.85-19.11-5.82-34.1-2.88c-9.49,1.95-23.69,8.57-42.61,19.9c-18.92,11.34-39.48,27.21-61.63,47.64
	c-22.18,20.44-44.11,45.9-65.83,76.38C3535.86,2315.55,3517.06,2350.92,3501.21,2391.19z M3730.37,2248.42
	c5.51-6.22,9.29-12.36,11.33-18.44c2.04-6.06,1.97-10.9-0.18-14.54c-2.17-3.62-6.71-5.28-13.66-4.95
	c-6.95,0.33-15.9,3.73-26.81,10.21c-10.93,6.49-21.96,15.01-33.09,25.61c-11.15,10.59-20.9,20.94-29.28,31.02
	c-8.38,10.1-15.23,18.81-20.51,26.14c-5.3,7.34-7.18,10.97-5.62,10.89c6.17-0.29,14.76-2.55,25.74-6.8
	c10.98-4.24,22.15-9.8,33.51-16.68c11.36-6.86,22.38-14.09,33.09-21.69C3715.59,2261.61,3724.08,2254.69,3730.37,2248.42z"/>
<path class="st0" d="M3963.63,2540.25l204.25-400.98h-78.76c-10.23,0-13.48-5.11-8.36-16.37l43.54-85.92
	c4.75-10.23,12.37-14.32,21.58-14.32h383.59c10.23,0,13.48,5.12,8.36,16.37l-43.55,85.92c-4.75,10.23-12.37,14.32-21.58,14.32
	h-188.21l-47.18,93.08h131.95c10.23,0,13.48,5.12,8.36,16.37l-43.55,85.92c-4.75,10.23-12.37,14.32-21.58,14.32h-134l-97.98,193.33
	c-4.75,10.23-12.37,14.32-21.58,14.32H3972C3961.77,2556.62,3958.88,2550.48,3963.63,2540.25z"/>
<path class="st0" d="M4462.68,2321.35c23.83-65.47,69.41-128.88,126.25-181.05h-49.1c-10.23,0-13.11-6.14-8.36-16.37l44.2-84.9
	c4.75-10.23,12.38-14.32,21.58-14.32h249.59c135.02,0,183.25,106.38,135.96,236.29c-53.98,148.32-229.04,297.66-384.52,297.66
	C4466.32,2558.67,4416.51,2448.19,4462.68,2321.35z M4867.21,2261c24.2-66.49,8.13-120.7-62.45-120.7
	c-93.08,0-194.85,94.11-226.49,181.05c-23.08,63.42-6.46,121.73,62.08,121.73C4731.38,2443.08,4835.94,2346.93,4867.21,2261z"/>
<path class="st0" d="M4969.11,2540.25l203.88-399.95h-78.76c-10.23,0-13.48-5.11-8.36-16.37l43.18-84.9
	c4.75-10.23,12.37-14.32,21.58-14.32h282.32c95.13,0,156.21,54.21,118.6,157.53c-25.69,70.58-99.92,156.5-208.45,182.08
	l18.54,173.89c1.02,11.25-6.7,18.41-17.95,18.41h-96.15c-8.18,0-12.83-4.09-13.29-11.25l-17.52-173.89h-43.98L5086,2542.3
	c-4.75,10.23-12.37,14.32-21.58,14.32h-86.95C4967.25,2556.62,4964.37,2550.48,4969.11,2540.25z M5435.95,2182.24
	c13.03-35.8-15.42-41.94-45.09-41.94H5289.6l-58.44,115.59h87.97C5370.28,2255.89,5415.85,2237.48,5435.95,2182.24z"/>
<path class="st0" d="M5689.05,2540.25l204.25-400.98h-78.76c-10.23,0-13.48-5.11-8.36-16.37l43.55-85.92
	c4.75-10.23,12.37-14.32,21.58-14.32h181.05c10.23,0,13.48,5.12,8.36,16.37l-204.34,404.05h166.73c10.23,0,13.11,6.13,8.37,16.36
	l-42.43,82.86c-4.75,10.23-12.37,14.32-21.58,14.32h-270.04C5687.19,2556.62,5684.31,2550.48,5689.05,2540.25z"/>
<path class="st0" d="M6092.07,2540.25l203.23-400.98h-77.74c-10.23,0-13.48-5.11-8.36-16.37l43.55-85.92
	c4.75-10.23,12.37-14.32,21.58-14.32h181.05c10.23,0,13.11,6.14,8.36,16.37l-255.8,503.27c-4.75,10.23-12.37,14.32-21.58,14.32
	h-85.93C6090.2,2556.62,6086.95,2551.51,6092.07,2540.25z"/>
<path class="st0" d="M6371.31,2540.25l204.25-400.98h-78.76c-10.23,0-13.48-5.11-8.36-16.37l43.54-85.92
	c4.75-10.23,12.38-14.32,21.58-14.32h383.59c10.23,0,13.48,5.12,8.36,16.37l-43.55,85.92c-4.75,10.23-12.38,14.32-21.58,14.32
	h-188.21l-47.18,93.08h131.95c10.23,0,13.48,5.12,8.36,16.37l-43.55,85.92c-4.74,10.23-12.37,14.32-21.58,14.32h-134l-97.99,193.33
	c-4.75,10.23-12.37,14.32-21.58,14.32h-86.95C6369.44,2556.62,6366.56,2550.48,6371.31,2540.25z"/>
<path class="st0" d="M7133.82,2558.67c-102.29,0-202.53,0-303.06-2.05c-10.23,0-13.11-6.14-8.36-16.37l204.25-400.98h-78.76
	c-10.23,0-13.11-6.14-8.36-16.37l42.8-83.88c4.75-10.23,12.37-14.32,21.58-14.32h383.58c10.23,0,13.11,6.14,8.36,16.37l-42.81,83.88
	c-4.74,10.23-12.37,14.32-21.58,14.32h-188.21l-47.18,93.08h131.96c10.23,0,13.48,5.12,8.36,16.37l-43.55,85.92
	c-4.75,10.23-12.37,14.32-21.58,14.32h-134l-47.55,94.11h200.49c10.23,0,13.48,5.11,8.37,16.36l-43.18,84.9
	C7150.65,2554.58,7143.02,2558.67,7133.82,2558.67z"/>
<g>
	<g>
		<g>
			<g>
				<path class="st1" d="M1901.34,2620.6c-4.63,136.18-144.66,110.93-127.44,41.02h-117.94c-7.3,53.64,13.27,103.86,51.26,139.38
					c63.27,59.16,179.85,42.4,254.18-39.45c57.04-62.81,72.25-144.48,51.61-209.49L1901.34,2620.6z"/>
				<g>
					<path class="st2" d="M1377.49,1675.08l177.8,63.92c-0.45,2.4,23.18-7.29,37.58-28.57c42.22-62.4-77.67-42.21-48.37-106.66
						c23.14-50.9,65.3-2.06,94.01-4.84c14.22-1.38,20.13-59.94-23.29-103.31c-55.01-54.94-151.83-65.55-214.6,11.54
						C1342.21,1578.91,1377.49,1675.08,1377.49,1675.08z"/>
					<path class="st2" d="M1266.34,2236.8c73.18,0,165.27,0,165.27,0c16.4,0,26.44,18.01,17.8,31.96l-130.13,197.84
						c-14.27,23.05-9.04,53.42,12.55,69.81c36.79,27.92,82.22,16.12,102.44-16.54c0,0,121.28-190.57,158.26-252.94
						c51.85-87.45,35.23-160.83-92.23-160.83c-45.23,0-68.09-0.3-113.31-0.41c-29.97-0.07-44.33-25.82-28.62-54.39
						c20.63-37.54,84.56-153.79,84.56-153.79c3.06-5.5,17.56-12.84,30.86-2.59l81.05,67.57c7.7,6.34,26.37,19.37,51,19.37
						l139.38-0.18c29.35,0.19,54-12.46,54-46.14c0-36.13-31.59-49.64-53.98-49.62c-46.09,0.05-113.46,0.15-113.46,0.15
						c-7.32,0.01-14.41-2.53-20.06-7.18c0,0-106.74-106.47-151.24-150.37c-38.23-37.72-108.74-35.21-146.38,28.94
						c0,0-110.35,200.32-150.93,272.65C1099.55,2143.53,1154.64,2236.8,1266.34,2236.8z"/>
				</g>
			</g>
			<path class="st1" d="M1937.51,2383.99c-24.07-3.65-47.36-0.11-36.75-16.76c50.13-78.66,280.46-468.66,84.05-468.66h-133.17
				c-17.11,0.02-30.97,10.64-30.97,31c0,14.02,13.66,26.04,29.87,26.04l34.01,0.05c110.03,0,64.02,81.49-41.68,227.89
				c-231.23,320.26-367.82,391.23-491.42,391.23c-252.13,0-122.31-154.15-60.03-242.74c28.06-39.91,17.78-69.7-42.98-69.7H631.63
				c-13.89,0-25.39,11.28-25.11,25.16c0.27,13.39,11.2,24.16,24.66,24.16h235.63c39.1,0,37.14,31.29-30.7,82.32
				c-13.28,9.99-26.16,20.52-38.48,31.66H670.28c-12.65,0-22.99,10.35-22.99,22.99v1.85c0,12.65,10.35,22.99,22.99,22.99h81.69
				c-28.14,34.58-50.54,74.25-63.82,120.41c-5.97,20.74,9.68,41.41,31.26,41.41h1090.05c6.4,0,17.33-2.46,25.2-6.47
				c0.16-0.08,0.31-0.17,0.47-0.26l216.01-128.63c5.63-3.34,5.56-9.83,4.15-16.22C2047.54,2448.43,2009.83,2394.96,1937.51,2383.99z
				"/>
			<path class="st1" d="M1175.22,1693.32H749.53h-65H485.44c-13.15,0-23.92,10.76-23.92,23.92l0,0c0,13.15,10.76,23.92,23.92,23.92
				h185.58l-17.92,111.17H526.48c-12.65,0-22.99,10.35-22.99,22.99v1.85c0,12.65,10.35,22.99,22.99,22.99h118.92l-17.92,111.17
				h-60.22c-12.65,0-22.99,10.35-22.99,22.99v1.85c0,12.65,10.35,22.99,22.99,22.99h52.51l-27.64,171.48
				c-0.55,3.39,1.61,6.17,4.8,6.17h490.69c3.19,0,6.25-2.78,6.79-6.17l85.63-531.14C1180.57,1696.1,1178.41,1693.32,1175.22,1693.32
				z"/>
		</g>
		<path class="st1" d="M998.53,2661.63c-43.34,98.08-135.36,52.3-120.93,0H759.67c-5.67,51.83,9.83,101.91,47.11,135.76
			c68.35,62.06,184.01,46.02,258.33-35.83c27.32-30.09,45.21-64.88,53.56-99.94H998.53z"/>
	</g>
	<g>
		<path class="st3" d="M926.53,2105.77c0,10.83-8.78,19.6-19.61,19.6h-45.26c-10.83,0-19.61-8.78-19.61-19.6v-281.5
			c0-10.83,8.78-19.61,19.61-19.61h45.26c10.83,0,19.61,8.78,19.61,19.61V2105.77z"/>
		<path class="st3" d="M743.54,2007.26c-10.83,0-19.61-8.78-19.61-19.61v-45.26c0-10.83,8.78-19.61,19.61-19.61h281.5
			c10.83,0,19.61,8.78,19.61,19.61v45.26c0,10.83-8.78,19.61-19.61,19.61H743.54z"/>
	</g>
</g>
</svg>
